<?xml version="1.0" encoding="UTF-8" standalone="no"?>
<svg
   viewBox="0 0 448 512"
   version="1.1"
   id="svg1"
   sodipodi:docname="instagram.svg"
   inkscape:version="1.3.2 (091e20e, 2023-11-25, custom)"
   inkscape:export-filename="instagram.png"
   inkscape:export-xdpi="96"
   inkscape:export-ydpi="96"
   xmlns:inkscape="http://www.inkscape.org/namespaces/inkscape"
   xmlns:sodipodi="http://sodipodi.sourceforge.net/DTD/sodipodi-0.dtd"
   xmlns="http://www.w3.org/2000/svg"
   xmlns:svg="http://www.w3.org/2000/svg">
  <defs
     id="defs1" />
  <sodipodi:namedview
     id="namedview1"
     pagecolor="#ffffff"
     bordercolor="#666666"
     borderopacity="1.0"
     inkscape:showpageshadow="2"
     inkscape:pageopacity="0.0"
     inkscape:pagecheckerboard="0"
     inkscape:deskcolor="#d1d1d1"
     inkscape:zoom="1.1923828"
     inkscape:cx="398.362"
     inkscape:cy="304.01311"
     inkscape:window-width="2560"
     inkscape:window-height="1417"
     inkscape:window-x="-8"
     inkscape:window-y="-8"
     inkscape:window-maximized="1"
     inkscape:current-layer="svg1" />
  <rect
     style="fill:#ffffff;fill-opacity:1;stroke-width:4"
     id="rect1"
     width="372.36365"
     height="364.81577"
     x="32.707619"
     y="65.415237" />
  <path
     d="M 448,96 C 448,60.7 419.3,32 384,32 H 64 C 28.7,32 0,60.7 0,96 v 320 c 0,35.3 28.7,64 64,64 h 320 c 35.3,0 64,-28.7 64,-64 z"
     id="path1"
     style="fill:#eb92c2;fill-opacity:1;stroke:#db198d;stroke-width:15;stroke-dasharray:none;stroke-opacity:1"
     sodipodi:nodetypes="sssssssss"
     inkscape:export-filename="instagram.png"
     inkscape:export-xdpi="9.9524841"
     inkscape:export-ydpi="9.9524841" />
  <!--!Font Awesome Free 6.5.2 by @fontawesome - https://fontawesome.com License - https://fontawesome.com/license/free Copyright 2024 Fonticons, Inc.-->
  <path
     d="m 194.4,211.7 c -24.49385,16.37525 -31.07522,49.50616 -14.69998,73.99999 16.37524,24.49383 49.50613,31.07526 73.99998,14.70001 24.49385,-16.37525 31.07522,-49.50616 14.69998,-73.99999 C 252.02474,201.90618 218.89385,195.32475 194.4,211.7 Z m 142.3,-68.4 c -5.2,-5.2 -11.5,-9.3 -18.4,-12 -18.1,-7.1 -57.6,-6.8 -83.1,-6.5 -4.1,0 -7.9,0.1 -11.2,0.1 -3.3,0 -7.2,0 -11.4,-0.1 -25.5,-0.3 -64.8,-0.7 -82.9,6.5 -6.9,2.7 -13.1,6.8 -18.4,12 -5.3,5.2 -9.3,11.5 -12,18.4 -7.1,18.1 -6.7,57.7 -6.5,83.2 0,4.1 0.1,7.9 0.1,11.1 0,3.2 0,7 -0.1,11.1 -0.2,25.5 -0.6,65.1 6.5,83.2 2.7,6.9 6.8,13.1 12,18.4 5.2,5.3 11.5,9.3 18.4,12 18.1,7.1 57.6,6.8 83.1,6.5 4.1,0 7.9,-0.1 11.2,-0.1 3.3,0 7.2,0 11.4,0.1 25.5,0.3 64.8,0.7 82.9,-6.5 6.9,-2.7 13.1,-6.8 18.4,-12 5.3,-5.2 9.3,-11.5 12,-18.4 7.2,-18 6.8,-57.4 6.5,-83 0,-4.2 -0.1,-8.1 -0.1,-11.4 0,-3.3 0,-7.1 0.1,-11.4 0.3,-25.5 0.7,-64.9 -6.5,-83 v 0 c -2.7,-6.9 -6.8,-13.1 -12,-18.4 z m -67.1,44.5 c 37.66585,25.1842 47.78416,76.13416 22.59997,113.79998 C 267.01579,339.2658 216.06585,349.3842 178.4,324.2 140.73415,299.04341 130.59346,248.11584 155.75003,210.45002 180.9066,172.7842 231.83415,162.64341 269.5,187.8 Z m 29.2,-1.3 c -3.1,-2.1 -5.6,-5.1 -7.1,-8.6 -1.5,-3.5 -1.8,-7.3 -1.1,-11.1 0.7,-3.8 2.6,-7.1 5.2,-9.8 2.6,-2.7 6.1,-4.5 9.8,-5.2 3.7,-0.7 7.6,-0.4 11.1,1.1 3.5,1.5 6.5,3.9 8.6,7 2.1,3.1 3.2,6.8 3.2,10.6 0,2.5 -0.5,5 -1.4,7.3 -0.9,2.3 -2.4,4.4 -4.1,6.2 -1.7,1.8 -3.9,3.2 -6.2,4.2 -2.3,1 -4.8,1.5 -7.3,1.5 v 0 c -3.8,0 -7.5,-1.1 -10.6,-3.2 z M 357,389 c -18.7,18.7 -41.4,24.6 -67,25.9 -26.4,1.5 -105.6,1.5 -132,0 -25.6,-1.3 -48.3,-7.2 -67,-25.9 -18.7,-18.7 -24.6,-41.4 -25.8,-67 -1.5,-26.4 -1.5,-105.6 0,-132 1.3,-25.6 7.1,-48.3 25.8,-67 18.7,-18.7 41.5,-24.6 67,-25.8 26.4,-1.5 105.6,-1.5 132,0 25.6,1.3 48.3,7.1 67,25.8 18.7,18.7 24.6,41.4 25.8,67 1.5,26.3 1.5,105.4 0,131.9 -1.3,25.6 -7.1,48.3 -25.8,67 z"
     id="path6"
     style="fill:#ffffff;fill-opacity:1;stroke:none;stroke-width:15;stroke-dasharray:none;stroke-opacity:1"
     sodipodi:nodetypes="ssssscccsccsccsccsccsccsccscsscccscscccsssssssssssscccccsccsccscccc" />
</svg>
