<?xml version="1.0" encoding="UTF-8" standalone="no"?>
<svg
   version="1.1"
   id="Layer_1"
   x="0px"
   y="0px"
   viewBox="0 0 448 512"
   xml:space="preserve"
   sodipodi:docname="onlyfans.svg"
   width="448"
   height="512"
   inkscape:version="1.3.2 (091e20e, 2023-11-25, custom)"
   inkscape:export-filename="onlyfans.png"
   inkscape:export-xdpi="10.285714"
   inkscape:export-ydpi="10.285714"
   xmlns:inkscape="http://www.inkscape.org/namespaces/inkscape"
   xmlns:sodipodi="http://sodipodi.sourceforge.net/DTD/sodipodi-0.dtd"
   xmlns="http://www.w3.org/2000/svg"
   xmlns:svg="http://www.w3.org/2000/svg"><defs
   id="defs2" /><sodipodi:namedview
   id="namedview2"
   pagecolor="#ffffff"
   bordercolor="#666666"
   borderopacity="1.0"
   inkscape:showpageshadow="2"
   inkscape:pageopacity="0.0"
   inkscape:pagecheckerboard="0"
   inkscape:deskcolor="#d1d1d1"
   inkscape:zoom="1.641129"
   inkscape:cx="121.25799"
   inkscape:cy="284.25553"
   inkscape:window-width="2560"
   inkscape:window-height="1417"
   inkscape:window-x="-8"
   inkscape:window-y="-8"
   inkscape:window-maximized="1"
   inkscape:current-layer="Layer_1"
   showgrid="false" />
<style
   type="text/css"
   id="style1">
	.st0{fill:#00AFF0;}
	.st1{opacity:0.8;fill:#FFFFFF;}
	.st2{fill:#FFFFFF;}
</style>
<path
   d="M 64,32 C 28.7,32 0,60.7 0,96 v 320 c 0,35.3 28.7,64 64,64 h 320 c 35.3,0 64,-28.7 64,-64 V 96 C 448,60.7 419.3,32 384,32 Z"
   id="path1-1"
   style="display:inline;fill:#eb92c2;fill-opacity:1;stroke:#db198d;stroke-width:15;stroke-dasharray:none;stroke-opacity:1"
   sodipodi:nodetypes="sssssssss"
   inkscape:export-filename="onlyfans.png"
   inkscape:export-xdpi="9.9524841"
   inkscape:export-ydpi="9.9524841" />
<path
   class="st1"
   d="m 171.49247,294.53763 c -17.34193,0 -31.55269,-14.21075 -31.55269,-31.55268 0,-17.34194 14.21076,-31.55269 31.55269,-31.55269 17.34194,0 31.55269,14.21075 31.55269,31.55269 0,8.4301 -3.37204,16.37849 -9.15269,22.4 -6.0215,5.78064 -13.96989,9.15268 -22.4,9.15268 z m 0,-136.56774 c -58.04731,0 -105.015051,46.96774 -105.015051,105.01506 0,58.04731 46.967741,105.01505 105.015051,105.01505 58.04731,0 105.01506,-46.96774 105.01506,-105.01505 0,-58.04732 -46.96775,-105.01506 -105.01506,-105.01506 z"
   id="path1"
   style="display:inline;stroke-width:2.40861" />
<path
   class="st2"
   d="m 289.51398,236.73118 c 26.73548,7.70753 58.28817,0 58.28817,0 -9.15269,39.9828 -38.05591,64.7914 -79.96559,67.92258 C 251.2172,343.1914 213.40215,368 171.49247,368 L 203.04516,267.80215 C 235.32043,164.95484 251.93978,157.96989 328.77419,157.96989 h 52.74839 c -8.91183,38.7785 -39.26021,68.64516 -92.0086,78.76129 z"
   id="path2"
   style="stroke-width:2.40861" />
</svg>
