<?xml version="1.0" encoding="UTF-8" standalone="no"?>
<svg
   viewBox="0 0 448 512"
   version="1.1"
   id="svg1"
   sodipodi:docname="x.svg"
   inkscape:version="1.3.2 (091e20e, 2023-11-25, custom)"
   inkscape:export-filename="x.png"
   inkscape:export-xdpi="96"
   inkscape:export-ydpi="96"
   xmlns:inkscape="http://www.inkscape.org/namespaces/inkscape"
   xmlns:sodipodi="http://sodipodi.sourceforge.net/DTD/sodipodi-0.dtd"
   xmlns="http://www.w3.org/2000/svg"
   xmlns:svg="http://www.w3.org/2000/svg">
  <defs
     id="defs1" />
  <sodipodi:namedview
     id="namedview1"
     pagecolor="#ffffff"
     bordercolor="#666666"
     borderopacity="1.0"
     inkscape:showpageshadow="2"
     inkscape:pageopacity="0.0"
     inkscape:pagecheckerboard="0"
     inkscape:deskcolor="#d1d1d1"
     inkscape:zoom="2.3847656"
     inkscape:cx="223.92138"
     inkscape:cy="256"
     inkscape:window-width="2560"
     inkscape:window-height="1417"
     inkscape:window-x="-8"
     inkscape:window-y="-8"
     inkscape:window-maximized="1"
     inkscape:current-layer="svg1"
     inkscape:export-bgcolor="#ffffff00" />
  <rect
     style="fill:#ffffff;fill-opacity:1;stroke:none;stroke-width:4"
     id="rect1"
     width="354.33252"
     height="384.52417"
     x="51.158066"
     y="48.222767" />
  <!--!Font Awesome Free 6.5.2 by @fontawesome - https://fontawesome.com License - https://fontawesome.com/license/free Copyright 2024 Fonticons, Inc.-->
  <path
     d="M 64,32 C 28.7,32 0,60.7 0,96 v 320 c 0,35.3 28.7,64 64,64 h 320 c 35.3,0 64,-28.7 64,-64 V 96 C 448,60.7 419.3,32 384,32 Z"
     id="path1"
     style="fill:#eb92c2;fill-opacity:1;stroke:#db198d;stroke-width:15;stroke-dasharray:none;stroke-opacity:1"
     inkscape:export-filename="x.png"
     inkscape:export-xdpi="9.9524841"
     inkscape:export-ydpi="9.9524841"
     sodipodi:nodetypes="sssssssss" />
  <path
     d="m 360.60029,116 -103.8,118.6 122.1,161.4 h -95.6 l -74.8,-97.9 -85.7,97.9 H 75.300294 L 186.30029,269.1 69.200294,116 h 97.999996 l 67.7,89.5 78.2,-89.5 z m -37.8,251.6 -169.9,-224.7 h -28.3 l 171.8,224.7 h 26.3 z"
     style="fill:#ffffff;fill-opacity:1;stroke:none;stroke-width:15;stroke-dasharray:none;stroke-opacity:1"
     id="path1-9" />
</svg>
